<?xml version="1.0" standalone="no"?>
<!DOCTYPE svg PUBLIC "-//W3C//DTD SVG 20010904//EN"
 "http://www.w3.org/TR/2001/REC-SVG-20010904/DTD/svg10.dtd">
<svg version="1.0" xmlns="http://www.w3.org/2000/svg"
 width="438.000000pt" height="101.000000pt" viewBox="0 0 438.000000 101.000000"
 preserveAspectRatio="xMidYMid meet">

<g transform="translate(0.000000,101.000000) scale(0.100000,-0.100000)"
fill="#000000" stroke="none">
<path d="M807 616 c-20 -36 -48 -83 -62 -106 l-27 -42 -45 78 c-53 95 -54 96
-73 84 -13 -8 -6 -26 38 -110 l53 -100 -45 -84 c-25 -46 -46 -87 -46 -90 0 -3
8 -6 18 -6 11 0 33 28 64 83 25 45 78 139 118 209 65 115 76 148 50 148 -4 0
-24 -29 -43 -64z"/>
<path d="M2316 669 c-79 -19 -196 -114 -217 -176 -21 -63 21 -93 154 -108 31
-4 59 -11 62 -15 7 -11 -83 -56 -152 -75 -35 -10 -67 -23 -73 -30 -46 -55 184
8 247 67 27 26 30 64 6 77 -10 5 -45 12 -78 16 -91 10 -125 23 -125 47 0 55
114 148 181 148 39 0 65 20 55 45 -6 17 -5 17 -60 4z"/>
<path d="M2447 673 c-11 -19 -100 -423 -94 -429 15 -15 35 9 76 91 41 83 123
185 149 185 19 0 13 -75 -12 -175 -25 -94 -24 -108 2 -103 11 2 21 25 32 66 8
35 20 63 25 63 6 0 12 -20 15 -43 7 -53 15 -67 46 -79 17 -6 35 -5 58 5 35 15
106 91 106 114 0 9 3 13 6 10 3 -3 -1 -31 -9 -61 -8 -30 -11 -60 -7 -67 14
-22 37 -3 45 36 12 67 44 140 74 168 16 16 53 36 83 46 55 18 71 42 30 48 -33
5 -83 -14 -116 -45 l-29 -26 7 35 c4 24 3 39 -5 44 -18 11 -34 -18 -48 -90
-12 -58 -16 -66 -36 -66 -16 0 -25 -7 -29 -24 -10 -40 -60 -86 -94 -86 -32 0
-42 14 -42 58 0 38 8 46 70 77 93 46 107 68 70 105 -32 32 -92 27 -123 -10
-14 -16 -31 -46 -38 -65 -20 -56 -36 -51 -31 10 6 71 -10 99 -51 91 -44 -9
-74 -31 -110 -82 -17 -25 -33 -41 -35 -36 -2 6 9 56 23 112 14 57 24 109 21
116 -6 15 -22 19 -29 7z m343 -176 c0 -7 -20 -23 -45 -35 -48 -23 -55 -17 -29
23 18 27 74 36 74 12z"/>
<path d="M3785 660 c-8 -13 3 -30 20 -30 14 0 27 24 18 34 -10 9 -31 7 -38 -4z"/>
<path d="M4116 459 c-90 -159 -116 -213 -107 -222 8 -8 15 -8 25 3 17 18 236
408 236 421 0 5 -8 9 -17 9 -13 0 -54 -64 -137 -211z"/>
<path d="M4280 595 c-10 -12 -3 -24 44 -72 l56 -58 0 30 c0 21 -12 42 -41 73
-22 23 -41 42 -43 42 -2 0 -9 -7 -16 -15z"/>
<path d="M194 544 c-101 -72 -124 -93 -118 -109 8 -20 130 -115 148 -115 31 0
16 29 -39 75 -30 26 -55 50 -55 54 0 3 36 30 80 60 75 51 92 72 71 85 -5 3
-44 -20 -87 -50z"/>
<path d="M1105 548 c-49 -18 -84 -47 -106 -89 -35 -69 -6 -98 87 -85 49 6 55
-3 22 -34 -35 -33 -77 -52 -117 -53 -20 0 -40 -5 -44 -11 -12 -15 -1 141 14
198 15 61 8 76 -36 76 -48 0 -103 -51 -149 -140 -29 -55 -36 -79 -34 -113 3
-37 6 -42 30 -45 21 -3 39 8 79 45 l51 48 -7 -47 c-8 -51 5 -69 32 -46 13 10
17 10 20 1 6 -17 23 -16 79 3 66 22 120 60 134 95 20 48 9 59 -65 59 -62 0
-65 1 -65 24 0 36 53 76 100 76 38 0 67 21 55 40 -8 13 -41 12 -80 -2z m-185
-63 c0 -14 -6 -40 -14 -58 -14 -34 -102 -137 -117 -137 -32 0 20 126 76 186
38 40 55 43 55 9z"/>
<path d="M1306 545 c-79 -28 -139 -120 -105 -161 11 -13 26 -15 71 -11 43 4
58 2 58 -7 0 -30 -86 -78 -140 -80 -28 -1 -35 -5 -35 -21 0 -17 6 -20 34 -17
75 6 181 73 181 115 0 33 25 12 28 -24 5 -64 11 -77 43 -88 23 -8 38 -7 63 3
61 25 125 121 98 148 -7 7 -16 -1 -30 -28 -29 -57 -64 -86 -98 -82 -28 3 -29
5 -29 53 l0 50 67 35 c92 48 97 54 71 87 -30 41 -86 44 -124 7 -16 -16 -35
-45 -41 -66 -13 -45 -30 -52 -113 -49 -72 3 -84 11 -65 47 17 31 58 54 97 54
37 0 57 14 50 34 -8 19 -29 20 -81 1z m239 -45 c6 -10 -73 -55 -82 -46 -3 3 2
17 11 31 17 25 59 35 71 15z"/>
<path d="M1663 548 c-18 -24 -74 -291 -63 -302 16 -16 35 12 54 82 29 109 76
161 159 176 28 5 37 12 37 26 0 15 -7 20 -25 20 -31 0 -93 -25 -118 -48 -18
-16 -19 -16 -15 17 3 36 -12 51 -29 29z"/>
<path d="M3153 544 c-38 -19 -126 -117 -153 -171 -60 -121 4 -165 105 -72 l43
40 -34 -113 c-40 -132 -40 -138 -14 -138 14 0 22 10 29 38 5 20 20 77 33 127
l23 90 5 -45 c4 -40 8 -45 32 -48 21 -3 39 8 79 45 l51 48 -7 -47 c-5 -30 -3
-48 4 -53 24 -15 38 16 44 98 3 46 11 104 18 130 15 62 8 77 -36 77 -47 0
-103 -51 -146 -135 -19 -35 -35 -62 -37 -60 -2 2 6 37 18 79 12 42 19 85 15
95 -8 26 -38 32 -72 15z m23 -65 c-12 -62 -116 -189 -154 -189 -36 0 16 99 93
175 53 54 70 57 61 14z m194 6 c0 -14 -6 -40 -14 -58 -14 -34 -102 -137 -117
-137 -32 0 20 126 76 186 38 40 55 43 55 9z"/>
<path d="M3457 548 c-8 -23 -31 -298 -24 -304 16 -16 38 12 88 108 l54 103 6
-55 c4 -30 7 -77 8 -103 1 -51 21 -72 45 -46 8 8 37 76 66 153 38 100 49 141
41 149 -18 18 -33 -5 -72 -115 l-36 -101 -6 48 c-4 26 -7 70 -7 97 0 35 -4 50
-16 55 -21 8 -35 -8 -84 -97 l-41 -75 7 70 c11 114 10 119 -7 123 -9 1 -19 -3
-22 -10z"/>
<path d="M3732 417 c-37 -167 -38 -180 -15 -175 14 2 25 35 50 148 38 171 38
170 15 170 -15 0 -23 -24 -50 -143z"/>
<path d="M4302 416 c-41 -24 -81 -51 -90 -59 -14 -15 -14 -17 0 -22 9 -4 48
12 92 37 58 33 75 48 76 66 0 12 -1 22 -2 22 -2 0 -36 -20 -76 -44z"/>
</g>
</svg>
